<svg xmlns="http://www.w3.org/2000/svg" width="1024" height="384" viewBox="0 0 1024 384"><defs><g id="body"><g stroke="#080e21" stroke-width="4" stroke-linejoin="round">
    <path d="M42 40 L69 37 86 51 78 81 44 82 34 59Z" fill="#253b59"/>
    <path d="M43 47 L67 44 78 54 69 68 46 67Z" fill="#406183" stroke="#ac86ff" stroke-width="2"/>
    <circle cx="59" cy="56" r="7" fill="#ac86ff" stroke="#e7ffff" stroke-width="2"/>
    <path d="M40 20 L69 18 85 28 78 45 47 44 35 33Z" fill="#29425f"/>
    <path d="M61 27 H84 L79 35 H59Z" fill="#ac86ff" stroke-width="2"/>
    <path d="M43 19 L38 9 M70 18 L76 10" fill="none" stroke="#ac86ff" stroke-width="3"/>



  </g></g></defs>
<g transform="translate(0 0)"><ellipse cx="62" cy="109" rx="31" ry="7" fill="#070d2180"/>
      <g transform="translate(0 0.00)" stroke="#080e21" stroke-width="4" stroke-linejoin="round">
        <path d="M45 77 L43 96 35 102 52 104 59 93 62 77Z" fill="#1b2b45"/><path d="M66 77 L66 98 59 105 82 105 80 96 78 77Z" fill="#36516e"/><path d="M64 99 H78" stroke="#ac86ff" stroke-width="3"/>
        <use href="#body"/>
        <g transform="rotate(4 68 53)">
          <path d="M65 47 L79 52 90 65 79 75 61 62Z" fill="#395979"/>
          <path d="M82 61 L106 14 116 10 99 63 92 77Z" fill="#ac86ff" stroke="#e4d8ff" stroke-width="2"/>
        </g>

      </g></g>
<g transform="translate(128 0)"><ellipse cx="62" cy="109" rx="31" ry="7" fill="#070d2180"/>
      <g transform="translate(0 0.71)" stroke="#080e21" stroke-width="4" stroke-linejoin="round">
        <path d="M45 77 L43 96 35 102 52 104 59 93 62 77Z" fill="#1b2b45"/><path d="M66 77 L66 98 59 105 82 105 80 96 78 77Z" fill="#36516e"/><path d="M64 99 H78" stroke="#ac86ff" stroke-width="3"/>
        <use href="#body"/>
        <g transform="rotate(4 68 53)">
          <path d="M65 47 L79 52 90 65 79 75 61 62Z" fill="#395979"/>
          <path d="M82 61 L106 14 116 10 99 63 92 77Z" fill="#ac86ff" stroke="#e4d8ff" stroke-width="2"/>
        </g>

      </g></g>
<g transform="translate(256 0)"><ellipse cx="62" cy="109" rx="31" ry="7" fill="#070d2180"/>
      <g transform="translate(0 1.00)" stroke="#080e21" stroke-width="4" stroke-linejoin="round">
        <path d="M45 77 L43 96 35 102 52 104 59 93 62 77Z" fill="#1b2b45"/><path d="M66 77 L66 98 59 105 82 105 80 96 78 77Z" fill="#36516e"/><path d="M64 99 H78" stroke="#ac86ff" stroke-width="3"/>
        <use href="#body"/>
        <g transform="rotate(4 68 53)">
          <path d="M65 47 L79 52 90 65 79 75 61 62Z" fill="#395979"/>
          <path d="M82 61 L106 14 116 10 99 63 92 77Z" fill="#ac86ff" stroke="#e4d8ff" stroke-width="2"/>
        </g>

      </g></g>
<g transform="translate(384 0)"><ellipse cx="62" cy="109" rx="31" ry="7" fill="#070d2180"/>
      <g transform="translate(0 0.71)" stroke="#080e21" stroke-width="4" stroke-linejoin="round">
        <path d="M45 77 L43 96 35 102 52 104 59 93 62 77Z" fill="#1b2b45"/><path d="M66 77 L66 98 59 105 82 105 80 96 78 77Z" fill="#36516e"/><path d="M64 99 H78" stroke="#ac86ff" stroke-width="3"/>
        <use href="#body"/>
        <g transform="rotate(4 68 53)">
          <path d="M65 47 L79 52 90 65 79 75 61 62Z" fill="#395979"/>
          <path d="M82 61 L106 14 116 10 99 63 92 77Z" fill="#ac86ff" stroke="#e4d8ff" stroke-width="2"/>
        </g>

      </g></g>
<g transform="translate(512 0)"><ellipse cx="62" cy="109" rx="31" ry="7" fill="#070d2180"/>
      <g transform="translate(0 0.00)" stroke="#080e21" stroke-width="4" stroke-linejoin="round">
        <path d="M45 77 L43 96 35 102 52 104 59 93 62 77Z" fill="#1b2b45"/><path d="M66 77 L66 98 59 105 82 105 80 96 78 77Z" fill="#36516e"/><path d="M64 99 H78" stroke="#ac86ff" stroke-width="3"/>
        <use href="#body"/>
        <g transform="rotate(4 68 53)">
          <path d="M65 47 L79 52 90 65 79 75 61 62Z" fill="#395979"/>
          <path d="M82 61 L106 14 116 10 99 63 92 77Z" fill="#ac86ff" stroke="#e4d8ff" stroke-width="2"/>
        </g>

      </g></g>
<g transform="translate(640 0)"><ellipse cx="62" cy="109" rx="31" ry="7" fill="#070d2180"/>
      <g transform="translate(0 -0.71)" stroke="#080e21" stroke-width="4" stroke-linejoin="round">
        <path d="M45 77 L43 96 35 102 52 104 59 93 62 77Z" fill="#1b2b45"/><path d="M66 77 L66 98 59 105 82 105 80 96 78 77Z" fill="#36516e"/><path d="M64 99 H78" stroke="#ac86ff" stroke-width="3"/>
        <use href="#body"/>
        <g transform="rotate(4 68 53)">
          <path d="M65 47 L79 52 90 65 79 75 61 62Z" fill="#395979"/>
          <path d="M82 61 L106 14 116 10 99 63 92 77Z" fill="#ac86ff" stroke="#e4d8ff" stroke-width="2"/>
        </g>

      </g></g>
<g transform="translate(768 0)"><ellipse cx="62" cy="109" rx="31" ry="7" fill="#070d2180"/>
      <g transform="translate(0 -1.00)" stroke="#080e21" stroke-width="4" stroke-linejoin="round">
        <path d="M45 77 L43 96 35 102 52 104 59 93 62 77Z" fill="#1b2b45"/><path d="M66 77 L66 98 59 105 82 105 80 96 78 77Z" fill="#36516e"/><path d="M64 99 H78" stroke="#ac86ff" stroke-width="3"/>
        <use href="#body"/>
        <g transform="rotate(4 68 53)">
          <path d="M65 47 L79 52 90 65 79 75 61 62Z" fill="#395979"/>
          <path d="M82 61 L106 14 116 10 99 63 92 77Z" fill="#ac86ff" stroke="#e4d8ff" stroke-width="2"/>
        </g>

      </g></g>
<g transform="translate(896 0)"><ellipse cx="62" cy="109" rx="31" ry="7" fill="#070d2180"/>
      <g transform="translate(0 -0.71)" stroke="#080e21" stroke-width="4" stroke-linejoin="round">
        <path d="M45 77 L43 96 35 102 52 104 59 93 62 77Z" fill="#1b2b45"/><path d="M66 77 L66 98 59 105 82 105 80 96 78 77Z" fill="#36516e"/><path d="M64 99 H78" stroke="#ac86ff" stroke-width="3"/>
        <use href="#body"/>
        <g transform="rotate(4 68 53)">
          <path d="M65 47 L79 52 90 65 79 75 61 62Z" fill="#395979"/>
          <path d="M82 61 L106 14 116 10 99 63 92 77Z" fill="#ac86ff" stroke="#e4d8ff" stroke-width="2"/>
        </g>

      </g></g>
<g transform="translate(0 128)"><ellipse cx="62" cy="109" rx="31" ry="7" fill="#070d2180"/>
      <g transform="translate(0 0.00)" stroke="#080e21" stroke-width="4" stroke-linejoin="round">
        <path d="M45 77 L44 96 36 102 53 104 60 93 62 77Z" fill="#1b2b45"/><path d="M66 77 L65 98 58 105 81 105 79 96 78 77Z" fill="#36516e"/><path d="M63 99 H77" stroke="#ac86ff" stroke-width="3"/>
        <use href="#body"/>
        <g transform="rotate(4 68 53)">
          <path d="M65 47 L79 52 90 65 79 75 61 62Z" fill="#395979"/>
          <path d="M82 61 L106 14 116 10 99 63 92 77Z" fill="#ac86ff" stroke="#e4d8ff" stroke-width="2"/>
        </g>

      </g></g>
<g transform="translate(128 128)"><ellipse cx="62" cy="109" rx="31" ry="7" fill="#070d2180"/>
      <g transform="translate(0 1.41)" stroke="#080e21" stroke-width="4" stroke-linejoin="round">
        <path d="M45 77 L35.51471862576143 96 27.514718625761432 102 44.51471862576143 104 51.51471862576143 93 62 77Z" fill="#1b2b45"/><path d="M66 77 L73.48528137423857 98 66.48528137423857 105 89.48528137423857 105 87.48528137423857 96 78 77Z" fill="#36516e"/><path d="M71.48528137423857 99 H85.48528137423857" stroke="#ac86ff" stroke-width="3"/>
        <use href="#body"/>
        <g transform="rotate(4 68 53)">
          <path d="M65 47 L79 52 90 65 79 75 61 62Z" fill="#395979"/>
          <path d="M82 61 L106 14 116 10 99 63 92 77Z" fill="#ac86ff" stroke="#e4d8ff" stroke-width="2"/>
        </g>

      </g></g>
<g transform="translate(256 128)"><ellipse cx="62" cy="109" rx="31" ry="7" fill="#070d2180"/>
      <g transform="translate(0 2.00)" stroke="#080e21" stroke-width="4" stroke-linejoin="round">
        <path d="M45 77 L32 96 24 102 41 104 48 93 62 77Z" fill="#1b2b45"/><path d="M66 77 L77 98 70 105 93 105 91 96 78 77Z" fill="#36516e"/><path d="M75 99 H89" stroke="#ac86ff" stroke-width="3"/>
        <use href="#body"/>
        <g transform="rotate(4 68 53)">
          <path d="M65 47 L79 52 90 65 79 75 61 62Z" fill="#395979"/>
          <path d="M82 61 L106 14 116 10 99 63 92 77Z" fill="#ac86ff" stroke="#e4d8ff" stroke-width="2"/>
        </g>

      </g></g>
<g transform="translate(384 128)"><ellipse cx="62" cy="109" rx="31" ry="7" fill="#070d2180"/>
      <g transform="translate(0 1.41)" stroke="#080e21" stroke-width="4" stroke-linejoin="round">
        <path d="M45 77 L35.51471862576143 96 27.51471862576143 102 44.51471862576143 104 51.51471862576143 93 62 77Z" fill="#1b2b45"/><path d="M66 77 L73.48528137423857 98 66.48528137423857 105 89.48528137423857 105 87.48528137423857 96 78 77Z" fill="#36516e"/><path d="M71.48528137423857 99 H85.48528137423857" stroke="#ac86ff" stroke-width="3"/>
        <use href="#body"/>
        <g transform="rotate(4 68 53)">
          <path d="M65 47 L79 52 90 65 79 75 61 62Z" fill="#395979"/>
          <path d="M82 61 L106 14 116 10 99 63 92 77Z" fill="#ac86ff" stroke="#e4d8ff" stroke-width="2"/>
        </g>

      </g></g>
<g transform="translate(512 128)"><ellipse cx="62" cy="109" rx="31" ry="7" fill="#070d2180"/>
      <g transform="translate(0 0.00)" stroke="#080e21" stroke-width="4" stroke-linejoin="round">
        <path d="M45 77 L44 96 36 102 53 104 60 93 62 77Z" fill="#1b2b45"/><path d="M66 77 L65 98 58 105 81 105 79 96 78 77Z" fill="#36516e"/><path d="M63 99 H77" stroke="#ac86ff" stroke-width="3"/>
        <use href="#body"/>
        <g transform="rotate(4 68 53)">
          <path d="M65 47 L79 52 90 65 79 75 61 62Z" fill="#395979"/>
          <path d="M82 61 L106 14 116 10 99 63 92 77Z" fill="#ac86ff" stroke="#e4d8ff" stroke-width="2"/>
        </g>

      </g></g>
<g transform="translate(640 128)"><ellipse cx="62" cy="109" rx="31" ry="7" fill="#070d2180"/>
      <g transform="translate(0 -1.41)" stroke="#080e21" stroke-width="4" stroke-linejoin="round">
        <path d="M45 77 L52.48528137423857 96 44.48528137423857 102 61.48528137423857 104 68.48528137423857 93 62 77Z" fill="#1b2b45"/><path d="M66 77 L56.51471862576143 98 49.51471862576143 105 72.51471862576143 105 70.51471862576143 96 78 77Z" fill="#36516e"/><path d="M54.51471862576143 99 H68.51471862576143" stroke="#ac86ff" stroke-width="3"/>
        <use href="#body"/>
        <g transform="rotate(4 68 53)">
          <path d="M65 47 L79 52 90 65 79 75 61 62Z" fill="#395979"/>
          <path d="M82 61 L106 14 116 10 99 63 92 77Z" fill="#ac86ff" stroke="#e4d8ff" stroke-width="2"/>
        </g>

      </g></g>
<g transform="translate(768 128)"><ellipse cx="62" cy="109" rx="31" ry="7" fill="#070d2180"/>
      <g transform="translate(0 -2.00)" stroke="#080e21" stroke-width="4" stroke-linejoin="round">
        <path d="M45 77 L56 96 48 102 65 104 72 93 62 77Z" fill="#1b2b45"/><path d="M66 77 L53 98 46 105 69 105 67 96 78 77Z" fill="#36516e"/><path d="M51 99 H65" stroke="#ac86ff" stroke-width="3"/>
        <use href="#body"/>
        <g transform="rotate(4 68 53)">
          <path d="M65 47 L79 52 90 65 79 75 61 62Z" fill="#395979"/>
          <path d="M82 61 L106 14 116 10 99 63 92 77Z" fill="#ac86ff" stroke="#e4d8ff" stroke-width="2"/>
        </g>

      </g></g>
<g transform="translate(896 128)"><ellipse cx="62" cy="109" rx="31" ry="7" fill="#070d2180"/>
      <g transform="translate(0 -1.41)" stroke="#080e21" stroke-width="4" stroke-linejoin="round">
        <path d="M45 77 L52.48528137423857 96 44.48528137423857 102 61.48528137423857 104 68.48528137423857 93 62 77Z" fill="#1b2b45"/><path d="M66 77 L56.51471862576143 98 49.51471862576143 105 72.51471862576143 105 70.51471862576143 96 78 77Z" fill="#36516e"/><path d="M54.51471862576143 99 H68.51471862576143" stroke="#ac86ff" stroke-width="3"/>
        <use href="#body"/>
        <g transform="rotate(4 68 53)">
          <path d="M65 47 L79 52 90 65 79 75 61 62Z" fill="#395979"/>
          <path d="M82 61 L106 14 116 10 99 63 92 77Z" fill="#ac86ff" stroke="#e4d8ff" stroke-width="2"/>
        </g>

      </g></g>
<g transform="translate(0 256)"><ellipse cx="62" cy="109" rx="31" ry="7" fill="#070d2180"/>
      <g transform="translate(0 0.00)" stroke="#080e21" stroke-width="4" stroke-linejoin="round">
        <path d="M45 77 L43 96 35 102 52 104 59 93 62 77Z" fill="#1b2b45"/><path d="M66 77 L66 98 59 105 82 105 80 96 78 77Z" fill="#36516e"/><path d="M64 99 H78" stroke="#ac86ff" stroke-width="3"/>
        <use href="#body"/>
        <g transform="rotate(-8 68 53)">
          <path d="M65 47 L79 52 90 65 79 75 61 62Z" fill="#395979"/>
          <path d="M82 61 L106 14 116 10 99 63 92 77Z" fill="#ac86ff" stroke="#e4d8ff" stroke-width="2"/>
        </g>

      </g></g>
<g transform="translate(128 256)"><ellipse cx="62" cy="109" rx="31" ry="7" fill="#070d2180"/>
      <g transform="translate(0 0.71)" stroke="#080e21" stroke-width="4" stroke-linejoin="round">
        <path d="M45 77 L43 96 35 102 52 104 59 93 62 77Z" fill="#1b2b45"/><path d="M66 77 L66 98 59 105 82 105 80 96 78 77Z" fill="#36516e"/><path d="M64 99 H78" stroke="#ac86ff" stroke-width="3"/>
        <use href="#body"/>
        <g transform="rotate(-6 68 53)">
          <path d="M65 47 L79 52 90 65 79 75 61 62Z" fill="#395979"/>
          <path d="M82 61 L106 14 116 10 99 63 92 77Z" fill="#ac86ff" stroke="#e4d8ff" stroke-width="2"/>
        </g>

      </g></g>
<g transform="translate(256 256)"><ellipse cx="62" cy="109" rx="31" ry="7" fill="#070d2180"/>
      <g transform="translate(0 1.00)" stroke="#080e21" stroke-width="4" stroke-linejoin="round">
        <path d="M45 77 L43 96 35 102 52 104 59 93 62 77Z" fill="#1b2b45"/><path d="M66 77 L66 98 59 105 82 105 80 96 78 77Z" fill="#36516e"/><path d="M64 99 H78" stroke="#ac86ff" stroke-width="3"/>
        <use href="#body"/>
        <g transform="rotate(-4 68 53)">
          <path d="M65 47 L79 52 90 65 79 75 61 62Z" fill="#395979"/>
          <path d="M82 61 L106 14 116 10 99 63 92 77Z" fill="#ac86ff" stroke="#e4d8ff" stroke-width="2"/>
        </g>

      </g></g>
<g transform="translate(384 256)"><ellipse cx="62" cy="109" rx="31" ry="7" fill="#070d2180"/>
      <g transform="translate(0 0.71)" stroke="#080e21" stroke-width="4" stroke-linejoin="round">
        <path d="M45 77 L43 96 35 102 52 104 59 93 62 77Z" fill="#1b2b45"/><path d="M66 77 L66 98 59 105 82 105 80 96 78 77Z" fill="#36516e"/><path d="M64 99 H78" stroke="#ac86ff" stroke-width="3"/>
        <use href="#body"/>
        <g transform="rotate(-2 68 53)">
          <path d="M65 47 L79 52 90 65 79 75 61 62Z" fill="#395979"/>
          <path d="M82 61 L106 14 116 10 99 63 92 77Z" fill="#ac86ff" stroke="#e4d8ff" stroke-width="2"/>
        </g>
        <path d="M110 58 L124 53 118 63 126 68 110 68Z" fill="#ac86ff" stroke="#ffffff" stroke-width="2"/>
      </g></g>
<g transform="translate(512 256)"><ellipse cx="62" cy="109" rx="31" ry="7" fill="#070d2180"/>
      <g transform="translate(0 0.00)" stroke="#080e21" stroke-width="4" stroke-linejoin="round">
        <path d="M45 77 L43 96 35 102 52 104 59 93 62 77Z" fill="#1b2b45"/><path d="M66 77 L66 98 59 105 82 105 80 96 78 77Z" fill="#36516e"/><path d="M64 99 H78" stroke="#ac86ff" stroke-width="3"/>
        <use href="#body"/>
        <g transform="rotate(0 68 53)">
          <path d="M65 47 L79 52 90 65 79 75 61 62Z" fill="#395979"/>
          <path d="M82 61 L106 14 116 10 99 63 92 77Z" fill="#ac86ff" stroke="#e4d8ff" stroke-width="2"/>
        </g>
        <path d="M110 58 L124 53 118 63 126 68 110 68Z" fill="#ac86ff" stroke="#ffffff" stroke-width="2"/>
      </g></g>
<g transform="translate(640 256)"><ellipse cx="62" cy="109" rx="31" ry="7" fill="#070d2180"/>
      <g transform="translate(0 -0.71)" stroke="#080e21" stroke-width="4" stroke-linejoin="round">
        <path d="M45 77 L43 96 35 102 52 104 59 93 62 77Z" fill="#1b2b45"/><path d="M66 77 L66 98 59 105 82 105 80 96 78 77Z" fill="#36516e"/><path d="M64 99 H78" stroke="#ac86ff" stroke-width="3"/>
        <use href="#body"/>
        <g transform="rotate(2 68 53)">
          <path d="M65 47 L79 52 90 65 79 75 61 62Z" fill="#395979"/>
          <path d="M82 61 L106 14 116 10 99 63 92 77Z" fill="#ac86ff" stroke="#e4d8ff" stroke-width="2"/>
        </g>
        <path d="M110 58 L124 53 118 63 126 68 110 68Z" fill="#ac86ff" stroke="#ffffff" stroke-width="2"/>
      </g></g>
<g transform="translate(768 256)"><ellipse cx="62" cy="109" rx="31" ry="7" fill="#070d2180"/>
      <g transform="translate(0 -1.00)" stroke="#080e21" stroke-width="4" stroke-linejoin="round">
        <path d="M45 77 L43 96 35 102 52 104 59 93 62 77Z" fill="#1b2b45"/><path d="M66 77 L66 98 59 105 82 105 80 96 78 77Z" fill="#36516e"/><path d="M64 99 H78" stroke="#ac86ff" stroke-width="3"/>
        <use href="#body"/>
        <g transform="rotate(4 68 53)">
          <path d="M65 47 L79 52 90 65 79 75 61 62Z" fill="#395979"/>
          <path d="M82 61 L106 14 116 10 99 63 92 77Z" fill="#ac86ff" stroke="#e4d8ff" stroke-width="2"/>
        </g>

      </g></g>
<g transform="translate(896 256)"><ellipse cx="62" cy="109" rx="31" ry="7" fill="#070d2180"/>
      <g transform="translate(0 -0.71)" stroke="#080e21" stroke-width="4" stroke-linejoin="round">
        <path d="M45 77 L43 96 35 102 52 104 59 93 62 77Z" fill="#1b2b45"/><path d="M66 77 L66 98 59 105 82 105 80 96 78 77Z" fill="#36516e"/><path d="M64 99 H78" stroke="#ac86ff" stroke-width="3"/>
        <use href="#body"/>
        <g transform="rotate(6 68 53)">
          <path d="M65 47 L79 52 90 65 79 75 61 62Z" fill="#395979"/>
          <path d="M82 61 L106 14 116 10 99 63 92 77Z" fill="#ac86ff" stroke="#e4d8ff" stroke-width="2"/>
        </g>

      </g></g>
</svg>